# xmcd
#
# Track frame offsets:
# 150
# 12970
# 33470
# 50616
# 68029
# 80183
# 97552
# 111755
# 124095
# 146418
# 158372
# 174151
# 191438
#
# Disc length: 2881 seconds
#
# Revision: 0
# Processed by: cddbd v1.5.2PL0 Copyright (c) Steve Scherf et al.
# Submitted via: Axialis_AX_CDPlayer 2.6
#
DISCID=9a0b3f0d
DTITLE=Dafni - Charlie's Lonely Sunday
DYEAR=1900
DGENRE=
TTITLE0=Dimes
TTITLE1=Let's Pretend
TTITLE2=Broken Letter
TTITLE3=Complicated
TTITLE4=Down And Dirty
TTITLE5=This One dance
TTITLE6=Bottom Of A Well
TTITLE7=Honey Honey
TTITLE8=Lonely Sunday
TTITLE9=Carried Away
TTITLE10=What You Meant To Me
TTITLE11=Never Tell You Why
TTITLE12=Angeleno
EXTD=
EXTT0=
EXTT1=
EXTT2=
EXTT3=
EXTT4=
EXTT5=
EXTT6=
EXTT7=
EXTT8=
EXTT9=
EXTT10=
EXTT11=
EXTT12=
PLAYORDER=
